<svg width="100" height="100" viewBox="0 0 100 100" fill="none" xmlns="http://www.w3.org/2000/svg">
<rect width="100" height="100" rx="15" fill="#C887E3"/>
<path d="M39.816 63.4H19.016L15.048 73H4.424L24.392 28.2H34.632L54.664 73H43.784L39.816 63.4ZM36.552 55.528L29.448 38.376L22.344 55.528H36.552ZM74.032 73.768C70.4907 73.768 67.056 73.2987 63.728 72.36C60.4427 71.3787 57.7973 70.12 55.792 68.584L59.312 60.776C61.232 62.184 63.5147 63.3147 66.16 64.168C68.8053 65.0213 71.4507 65.448 74.096 65.448C77.04 65.448 79.216 65.0213 80.624 64.168C82.032 63.272 82.736 62.0987 82.736 60.648C82.736 59.5813 82.3093 58.7067 81.456 58.024C80.6453 57.2987 79.5787 56.7227 78.256 56.296C76.976 55.8693 75.2267 55.4 73.008 54.888C69.5947 54.0773 66.8 53.2667 64.624 52.456C62.448 51.6453 60.5707 50.344 58.992 48.552C57.456 46.76 56.688 44.3707 56.688 41.384C56.688 38.7813 57.392 36.4347 58.8 34.344C60.208 32.2107 62.32 30.5253 65.136 29.288C67.9947 28.0507 71.472 27.432 75.568 27.432C78.4267 27.432 81.2213 27.7733 83.952 28.456C86.6827 29.1387 89.072 30.12 91.12 31.4L87.92 39.272C83.7813 36.9253 79.6427 35.752 75.504 35.752C72.6027 35.752 70.448 36.2213 69.04 37.16C67.6747 38.0987 66.992 39.336 66.992 40.872C66.992 42.408 67.7813 43.56 69.36 44.328C70.9813 45.0533 73.4347 45.7787 76.72 46.504C80.1333 47.3147 82.928 48.1253 85.104 48.936C87.28 49.7467 89.136 51.0267 90.672 52.776C92.2507 54.5253 93.04 56.8933 93.04 59.88C93.04 62.44 92.3147 64.7867 90.864 66.92C89.456 69.0107 87.3227 70.6747 84.464 71.912C81.6053 73.1493 78.128 73.768 74.032 73.768Z" fill="white"/>
</svg>
